<?xml version="1.0" standalone="no"?>
<!DOCTYPE svg PUBLIC "-//W3C//DTD SVG 20010904//EN"
 "http://www.w3.org/TR/2001/REC-SVG-20010904/DTD/svg10.dtd">
<svg version="1.0" xmlns="http://www.w3.org/2000/svg"
 width="700.000000pt" height="700.000000pt" viewBox="0 0 700.000000 700.000000"
 preserveAspectRatio="xMidYMid meet">
<metadata>
Created by potrace 1.14, written by Peter Selinger 2001-2017
</metadata>
<g transform="translate(0.000000,700.000000) scale(0.100000,-0.100000)"
fill="#000000" stroke="none">
<path d="M1658 5685 c-2 -1 -40 -6 -85 -9 -46 -4 -91 -9 -101 -11 -10 -2 -44
-6 -75 -9 -32 -4 -88 -13 -125 -21 -37 -7 -79 -16 -92 -19 -105 -21 -300 -85
-398 -132 -41 -19 -76 -34 -78 -34 -11 0 -170 -100 -231 -146 -251 -188 -419
-465 -462 -761 -10 -69 -7 -318 4 -383 99 -568 535 -893 1340 -996 17 -2 41
-6 55 -8 14 -3 50 -8 80 -12 30 -3 57 -7 60 -9 3 -1 30 -6 61 -9 31 -4 67 -9
80 -11 13 -3 41 -7 64 -10 22 -3 99 -14 170 -25 72 -11 146 -21 165 -24 205
-26 423 -64 530 -92 251 -67 353 -165 367 -351 9 -126 -27 -231 -102 -296 -66
-56 -230 -107 -400 -121 -168 -15 -226 -17 -415 -17 -364 -1 -563 19 -739 72
-224 67 -341 217 -341 435 0 72 -20 118 -61 140 -30 15 -75 17 -414 17 -339 0
-385 -2 -414 -17 -65 -34 -71 -90 -35 -321 8 -47 43 -188 53 -210 5 -11 21
-51 36 -90 54 -141 140 -270 260 -390 97 -98 120 -117 210 -177 226 -149 547
-257 905 -304 14 -2 43 -5 65 -8 200 -27 687 -27 883 -1 84 11 119 16 142 20
14 3 41 7 60 10 249 41 542 153 731 280 52 35 88 53 96 48 207 -149 464 -259
728 -313 84 -17 217 -39 280 -45 33 -4 71 -8 85 -11 131 -22 706 -21 865 2 17
2 50 6 75 9 41 4 71 8 155 21 207 32 453 106 625 187 361 170 601 467 655 812
12 78 15 119 15 230 0 132 -2 152 -30 272 -76 323 -300 547 -677 672 -48 17
-99 32 -113 34 -14 3 -64 13 -112 22 l-88 18 0 33 c0 19 3 34 8 35 21 2 118
20 137 25 6 2 20 5 33 8 13 3 51 15 85 27 283 98 468 283 545 544 28 92 33
129 36 260 9 311 -89 557 -296 751 -183 171 -496 307 -828 359 -25 4 -52 9
-60 10 -13 2 -101 13 -165 21 -184 21 -653 21 -815 0 -14 -2 -50 -6 -80 -10
-48 -6 -89 -13 -215 -33 -87 -14 -369 -94 -430 -122 -11 -5 -60 -28 -108 -50
-350 -160 -604 -427 -724 -761 -42 -117 -74 -269 -76 -367 -2 -81 -1 -83 31
-115 l32 -33 422 -2 c516 -3 487 -11 514 143 50 290 223 406 659 441 169 13
617 6 713 -12 9 -1 37 -6 62 -10 219 -34 358 -123 396 -252 41 -140 14 -309
-63 -399 -49 -56 -144 -104 -258 -130 -16 -4 -295 -9 -620 -11 -324 -2 -604
-5 -621 -8 -17 -3 -42 -17 -55 -31 l-24 -26 -3 -301 c-4 -328 1 -363 46 -393
25 -17 64 -18 647 -20 733 -1 778 -4 910 -68 156 -75 227 -208 220 -409 -8
-197 -86 -305 -275 -380 -55 -22 -242 -64 -290 -65 -8 0 -51 -4 -95 -9 -100
-10 -631 -11 -745 -1 -129 12 -167 17 -273 44 -187 46 -301 125 -357 247 -30
65 -34 80 -50 217 -26 224 -72 359 -177 518 -42 63 -186 211 -233 239 -17 9
-30 21 -30 25 0 4 -4 8 -10 8 -5 0 -26 12 -47 26 -89 61 -385 187 -491 209 -9
2 -55 12 -102 24 -110 25 -290 57 -435 75 -27 4 -57 9 -65 11 -8 2 -76 14
-150 25 -74 11 -146 23 -160 25 -14 2 -70 11 -125 20 -55 9 -111 18 -125 20
-14 2 -43 7 -65 10 -178 26 -363 59 -430 77 -251 66 -345 170 -341 374 4 151
66 241 211 305 28 12 66 26 85 31 19 5 44 11 55 14 51 13 175 31 276 39 61 6
507 6 544 1 17 -3 65 -7 108 -11 42 -3 101 -10 130 -16 28 -5 66 -12 82 -15
81 -13 236 -76 277 -111 17 -15 26 -8 33 24 2 10 18 59 35 108 77 216 211 427
377 593 l26 25 -69 35 c-156 79 -370 154 -520 181 -32 6 -70 13 -84 16 -36 7
-171 24 -270 34 -77 8 -584 13 -592 6z"/>
</g>
</svg>
