<?xml version="1.0" standalone="no"?>
<!DOCTYPE svg PUBLIC "-//W3C//DTD SVG 20010904//EN"
 "http://www.w3.org/TR/2001/REC-SVG-20010904/DTD/svg10.dtd">
<svg version="1.0" xmlns="http://www.w3.org/2000/svg"
 width="700.000000pt" height="700.000000pt" viewBox="0 0 700.000000 700.000000"
 preserveAspectRatio="xMidYMid meet">
<metadata>
Created by potrace 1.14, written by Peter Selinger 2001-2017
</metadata>
<g transform="translate(0.000000,700.000000) scale(0.100000,-0.100000)"
fill="#000000" stroke="none">
<path d="M3427 5834 c-1 -1 -40 -4 -87 -8 -154 -11 -245 -28 -374 -67 -520
-159 -820 -571 -831 -1139 -6 -312 52 -547 182 -750 65 -101 191 -227 295
-297 157 -105 406 -207 628 -258 36 -8 206 -49 335 -81 77 -20 151 -37 165
-40 47 -9 225 -72 272 -95 122 -62 146 -79 213 -144 129 -127 188 -286 185
-505 -2 -262 -87 -450 -265 -589 -146 -114 -373 -180 -626 -182 -391 -1 -654
112 -810 350 -27 40 -49 79 -49 85 0 6 -7 24 -16 41 -15 30 -40 135 -50 210
-3 21 -9 42 -13 45 -5 3 -130 5 -278 5 l-268 0 1 -55 c1 -86 13 -167 39 -271
97 -387 339 -657 726 -809 115 -46 331 -92 494 -106 105 -10 342 -9 430 0 156
17 168 19 300 52 384 95 660 305 819 622 27 53 81 206 89 252 3 14 8 36 11 50
16 67 18 99 21 280 6 302 -34 488 -148 692 -160 286 -507 504 -957 603 -108
24 -536 132 -600 152 -341 104 -513 277 -554 554 -13 85 -14 254 -2 309 3 14
8 39 11 55 21 108 88 229 175 315 147 147 334 211 606 211 91 -1 118 -3 229
-22 284 -49 504 -266 550 -543 3 -17 8 -46 11 -63 l6 -33 279 0 280 0 -7 68
c-5 57 -16 122 -40 241 -8 40 -75 215 -89 231 -6 8 -15 23 -18 33 -26 74 -183
251 -295 334 -173 128 -349 198 -627 248 -35 6 -343 23 -348 19z"/>
</g>
</svg>
