<?xml version="1.0" encoding="utf-8"?>
<!-- Generator: Adobe Illustrator 26.3.1, SVG Export Plug-In . SVG Version: 6.00 Build 0)  -->
<svg version="1.1" id="Lager_1" xmlns="http://www.w3.org/2000/svg" xmlns:xlink="http://www.w3.org/1999/xlink" x="0px" y="0px"
	 viewBox="0 0 100 100" style="enable-background:new 0 0 100 100;" xml:space="preserve">
<style type="text/css">
	.st0{fill:#5CC185;}
</style>
<g>
	<path class="st0" d="M85.3,48.7v-1c7.9-1,12.1-5.7,12.1-12.7c0-10.7-9-16.2-25.2-16.2c-18.9,0-28.3,7.9-29.2,19.8
		c-0.1,0.9,0.7,1.8,1.6,1.8l11.1,0c0.8,0,1.6-0.6,1.6-1.5c0.5-5.1,3.6-7,13.6-7c10.3,0,12.9,1.8,12.9,6.1c0,3.8-2.4,5.7-7.6,5.7
		H61.6c-0.9,0-1.6,0.7-1.6,1.6v7.9c0,0.9,0.7,1.6,1.6,1.6h15.9c5.7,0,8.6,1.9,8.6,6.4c0,5.3-3.5,7.1-15,7.1c-11.2,0-14.4-2-14.8-7.2
		c-0.5-7.7-5.6-13.7-18.5-15.8l-17.1-2.7c-5.1-0.9-7.1-2.2-7.1-5.7c0-3.9,3-5.8,12.8-5.8c6.8,0,10.7,0.8,12.8,2.5
		c1.1-4.3,3.3-8,6.4-10.9c-4.4-2.6-10.3-4-17.9-4C7.4,18.6,0,28.3,0,37.4c0,9.9,6.4,15.3,17.3,17.1l17.1,2.5
		c6.3,1.1,8.3,2.5,8.3,6.2c0,4.1-2.5,5.7-13.4,5.7c-12.3,0-15.2-2.3-15.2-7.9v0c0-0.9-0.7-1.6-1.6-1.6l-10.3,0
		c-0.9,0-1.7,0.8-1.6,1.8c0.8,13.6,11,20.2,28.7,20.2c9.6,0,16.3-2.2,20.6-5.6c0,0,0,0,0,0c4.7,3.7,11.9,5.7,21.8,5.7
		c17.7,0,28.2-6.2,28.2-18C100,54.5,94.2,50,85.3,48.7z"/>
</g>
</svg>
