<?xml version="1.0" encoding="utf-8"?>
<!-- Generator: Adobe Illustrator 25.3.1, SVG Export Plug-In . SVG Version: 6.00 Build 0)  -->
<svg version="1.1" id="Lager_1" xmlns="http://www.w3.org/2000/svg" xmlns:xlink="http://www.w3.org/1999/xlink" x="0px" y="0px"
	 viewBox="0 0 140 100" style="enable-background:new 0 0 140 100;" xml:space="preserve">
<style type="text/css">
	.st0{fill:#222323;}
	.st1{fill:#393939;}
</style>
<path class="st0" d="M140,0c-14.3,0-27.9,7.4-35,19.7C98.1,31.8,85,40,70,40s-28.1-8.2-35-20.3C27.9,7.4,14.3,0,0,0v100h140V0z"/>
<path class="st1" d="M0,1h1c13.8,0.3,26.4,7.6,33.1,19.2C41.4,33,55.2,41,70,41s28.6-8,35.9-20.8C112.6,8.7,125.2,1.4,139,1h1V0l0,0
	c-14.3,0-27.9,7.4-35,19.7C98.1,31.8,85,40,70,40s-28.1-8.2-35-20.3C27.9,7.4,14.3,0,0,0V1z"/>
</svg>
