<?xml version="1.0" encoding="utf-8"?>
<!-- Generator: Adobe Illustrator 25.3.1, SVG Export Plug-In . SVG Version: 6.00 Build 0)  -->
<svg version="1.1" id="Lager_1" xmlns="http://www.w3.org/2000/svg" xmlns:xlink="http://www.w3.org/1999/xlink" x="0px" y="0px"
	 viewBox="0 0 80 100" style="enable-background:new 0 0 80 100;" xml:space="preserve">
<style type="text/css">
	.st0{fill:#FFFFFF;}
	.st1{fill:#E5E5E5;}
</style>
<path class="st0" d="M79,34c-4.7,0-8.9-2.7-10.9-7C63.3,16.4,52.5,9,40,9s-23.3,7.4-28.2,18c-2,4.2-6.2,7-10.9,7H0v66h80V34H79z"/>
<path class="st1" d="M0,34 M40,10c11.7,0,22.4,6.8,27.2,17.4C69.4,32.1,73.9,35,79,35h1v-1h-1c-4.7,0-8.9-2.7-10.9-7
	C63.3,16.4,52.5,9,40,9l0,0c-12.5,0-23.3,7.4-28.2,18c-2,4.2-6.2,7-10.9,7H0v1l1,0c4.9,0,9.5-3,11.7-7.6C17.6,16.8,28.3,10,40,10"/>
</svg>
