<?xml version="1.0" encoding="utf-8"?>
<!-- Generator: Adobe Illustrator 25.3.1, SVG Export Plug-In . SVG Version: 6.00 Build 0)  -->
<svg version="1.1" id="Lager_1" xmlns="http://www.w3.org/2000/svg" xmlns:xlink="http://www.w3.org/1999/xlink" x="0px" y="0px"
	 viewBox="0 0 80 100" style="enable-background:new 0 0 80 100;" xml:space="preserve">
<style type="text/css">
	.st0{fill:#222323;}
	.st1{fill:#393939;}
</style>
<path class="st0" d="M79,25c-4.7,0-8.9-2.7-10.9-7C63.3,7.4,52.5,0,40,0S16.7,7.4,11.8,18c-2,4.2-6.2,7-10.9,7H0v75h80V25H79z"/>
<path class="st1" d="M40,1c11.7,0,22.4,6.8,27.2,17.4C69.4,23.1,73.9,26,79,26h1v-1h-1c-4.7,0-8.9-2.7-10.9-7C63.3,7.4,52.5,0,40,0
	l0,0C27.5,0,16.7,7.4,11.8,18c-2,4.2-6.2,7-10.9,7H0v1h1c4.9,0,9.5-3,11.7-7.6C17.6,7.8,28.3,1,40,1"/>
</svg>
