<?xml version="1.0" encoding="utf-8"?>
<!-- Generator: Adobe Illustrator 26.4.1, SVG Export Plug-In . SVG Version: 6.00 Build 0)  -->
<svg version="1.1" id="Lager_1" xmlns:v="https://vecta.io/nano"
	 xmlns="http://www.w3.org/2000/svg" xmlns:xlink="http://www.w3.org/1999/xlink" x="0px" y="0px" viewBox="0 0 203 202"
	 style="enable-background:new 0 0 203 202;" xml:space="preserve">
<style type="text/css">
	.st0{fill:#FFFFFF;stroke:#E6E6E6;stroke-width:2;}
	.st1{fill:#EC5990;}
	.st2{fill-rule:evenodd;clip-rule:evenodd;fill:#FFFFFF;}
</style>
<g>
	<path class="st0" d="M157.5,201C157.5,201,157.4,201,157.5,201H45.6c-11.9,0-23.1-4.6-31.5-13.1C5.6,179.5,1,168.4,1,156.4V45.6
		C1,33.7,5.6,22.5,14.1,14C22.3,5.8,33.8,1,45.5,1c0,0,0,0,0.1,0h111.9c11.9,0,23.1,4.6,31.5,13.1c8.4,8.4,13.1,19.6,13.1,31.5
		v110.9c0,11.9-4.6,23.1-13.1,31.5C180.7,196.2,169.2,201,157.5,201z"/>
	<path class="st1" d="M45.5,17.8c-7.3,0-14.4,3-19.6,8.1c-5.2,5.2-8.1,12.2-8.1,19.6v110.9c0,7.4,2.9,14.4,8.1,19.6
		c5.2,5.2,12.2,8.1,19.6,8.1h111.9c0,0,0,0,0,0c7.3,0,14.4-3,19.6-8.1c5.2-5.2,8.1-12.2,8.1-19.6V45.6c0-7.4-2.9-14.4-8.1-19.6
		c-5.2-5.2-12.2-8.1-19.6-8.1H45.5C45.5,17.8,45.5,17.8,45.5,17.8z"/>
</g>
<path class="st2" d="M133.1,52.1h-20.7c-1.5-4.7-5.9-7.9-10.9-7.9s-9.4,3.2-10.9,7.9H69.9c-8.1,0-14.7,6.6-14.7,14.7v76.4
	c0,8.1,6.6,14.7,14.7,14.7h63.1c8.1,0,14.7-6.6,14.7-14.7V66.8C147.8,58.7,141.2,52.1,133.1,52.1L133.1,52.1z M91.6,54.8
	c0.6,0,1.2-0.4,1.3-1.1c0.9-4,4.4-6.9,8.6-6.9c4.1,0,7.7,2.9,8.6,6.9c0.1,0.6,0.7,1.1,1.3,1.1h7.2v8.7c0,2.2-1.8,4-4,4H88.4
	c-2.2,0-4-1.8-4-4v-8.7L91.6,54.8L91.6,54.8z M145.1,143.2c0,6.6-5.4,12-12.1,12H69.9c-6.7,0-12.1-5.4-12.1-12V66.8
	c0-6.6,5.4-12,12.1-12h11.8v8.7c0,3.7,3,6.7,6.7,6.7h26.1c3.7,0,6.7-3,6.7-6.7v-8.7h11.8c6.7,0,12.1,5.4,12.1,12L145.1,143.2
	L145.1,143.2z M130.4,95.7h-23.6c-0.7,0-1.3,0.6-1.3,1.3l0,0c0,0.7,0.6,1.3,1.3,1.3l0,0h23.6c0.7,0,1.3-0.6,1.3-1.3l0,0
	C131.8,96.3,131.2,95.7,130.4,95.7L130.4,95.7L130.4,95.7z M95.6,95.7H72c-0.7,0-1.3,0.6-1.3,1.3l0,0c0,0.7,0.6,1.3,1.3,1.3l0,0
	h23.6c0.7,0,1.3-0.6,1.3-1.3l0,0C96.9,96.3,96.3,95.7,95.6,95.7L95.6,95.7C95.6,95.7,95.6,95.7,95.6,95.7z M130.5,127.9h-23.7
	c-0.7,0-1.3,0.6-1.3,1.3l0,0c0,0.7,0.6,1.3,1.3,1.3l0,0h23.7c0.7,0,1.3-0.6,1.3-1.3l0,0C131.8,128.5,131.2,127.9,130.5,127.9
	L130.5,127.9L130.5,127.9L130.5,127.9z M95.7,127.9H72c-0.7,0-1.3,0.6-1.3,1.3l0,0c0,0.7,0.6,1.3,1.3,1.3l0,0h23.7
	c0.7,0,1.3-0.6,1.3-1.3l0,0C97,128.5,96.4,127.9,95.7,127.9L95.7,127.9C95.7,127.9,95.7,127.9,95.7,127.9z"/>
</svg>
